<?xml version="1.0" standalone="no"?>
<!DOCTYPE svg PUBLIC "-//W3C//DTD SVG 20010904//EN"
 "http://www.w3.org/TR/2001/REC-SVG-20010904/DTD/svg10.dtd">
<svg version="1.0" xmlns="http://www.w3.org/2000/svg"
 width="512.000000pt" height="512.000000pt" viewBox="0 0 512.000000 512.000000"
 preserveAspectRatio="xMidYMid meet">
<metadata>
Created by potrace 1.14, written by Peter Selinger 2001-2017
</metadata>
<g transform="translate(0.000000,512.000000) scale(0.100000,-0.100000)"
fill="#000000" stroke="none">
<path d="M0 3840 l0 -1280 1156 0 c1097 0 1156 -1 1149 -17 -47 -111 -48 -119
-53 -256 l-4 -137 218 2 219 3 6 100 c4 67 11 111 23 134 22 42 80 98 186 181
166 129 257 210 298 263 177 228 158 558 -42 761 -120 121 -325 196 -535 196
l-61 0 0 665 0 665 -1280 0 -1280 0 0 -1280z m2690 -472 c59 -18 109 -56 131
-99 30 -60 28 -155 -6 -225 -27 -55 -126 -156 -209 -213 l-46 -32 0 296 0 296
48 -6 c26 -4 63 -11 82 -17z"/>
<path d="M2395 1871 c-87 -24 -148 -72 -178 -140 -28 -63 -27 -201 1 -262 25
-53 37 -68 79 -97 150 -106 405 -47 457 105 21 60 21 186 0 246 -18 53 -66
100 -133 130 -50 22 -175 32 -226 18z"/>
</g>
</svg>
